<svg width="790" height="488" viewBox="0 0 790 488" fill="none" xmlns="http://www.w3.org/2000/svg">
<path d="M731.082 325.84C741.96 324.133 750.129 319.192 749.326 314.805C748.524 310.418 739.055 308.246 728.177 309.954C717.299 311.661 709.131 316.602 709.933 320.989C710.736 325.375 720.204 327.547 731.082 325.84Z" fill="#92E3A9" stroke="#263238" stroke-miterlimit="10"/>
<path d="M723.538 273.368C723.538 273.368 722.43 274.306 720.609 276.1" stroke="#263238" stroke-miterlimit="10" stroke-linecap="round"/>
<path d="M724.145 316.022C720.163 316.239 715.285 316.908 710.481 318.596" stroke="#263238" stroke-miterlimit="10" stroke-linecap="round"/>
<path d="M732.999 316.224C732.999 316.224 731.683 316.049 729.511 315.971" stroke="#263238" stroke-miterlimit="10" stroke-linecap="round"/>
<path d="M717.22 356.918C717.22 356.918 716.244 356.082 714.506 354.873" stroke="#263238" stroke-miterlimit="10" stroke-linecap="round"/>
<path d="M707.069 402.927C707.069 404.139 708.168 405.121 709.523 405.121C710.877 405.121 711.976 404.139 711.976 402.927C711.976 401.715 710.878 400.733 709.523 400.733C708.168 400.732 707.069 401.715 707.069 402.927Z" fill="#8C8C8C"/>
<path d="M705.397 201.669C705.397 203.143 704.108 204.337 702.518 204.337C700.927 204.337 699.638 203.143 699.638 201.669C699.638 200.195 700.927 199 702.518 199C704.108 199 705.397 200.195 705.397 201.669Z" fill="white" stroke="#263238" stroke-miterlimit="10" stroke-linecap="round" stroke-linejoin="round"/>
<path d="M705.211 278.925C696.425 290.737 693.808 303.188 699.364 306.736C704.92 310.285 716.547 303.587 725.333 291.775C734.119 279.964 736.736 267.513 731.18 263.964C725.624 260.416 713.997 267.115 705.211 278.925Z" fill="#92E3A9" stroke="#263238" stroke-miterlimit="10"/>
<path d="M717.761 279.026C712.779 284.355 705.453 293.276 699.404 305.05" stroke="#263238" stroke-miterlimit="10" stroke-linecap="round"/>
<path d="M240.317 84.9294H193.521V70.5871C193.521 58.6135 203.996 48.9072 216.918 48.9072C229.84 48.9072 240.316 58.6135 240.316 70.5871V84.9294H240.317Z" fill="white" stroke="#263238" stroke-miterlimit="10" stroke-linecap="round" stroke-linejoin="round"/>
<path d="M216.919 48.9071V24.8916" stroke="#263238" stroke-miterlimit="10" stroke-linecap="round" stroke-linejoin="round"/>
<path d="M579.408 84.9294H532.612V70.5871C532.612 58.6135 543.087 48.9072 556.009 48.9072C568.932 48.9072 579.407 58.6135 579.407 70.5871L579.408 84.9294Z" fill="white" stroke="#263238" stroke-miterlimit="10" stroke-linecap="round" stroke-linejoin="round"/>
<path d="M556.011 48.9071V24.8916" stroke="#263238" stroke-miterlimit="10" stroke-linecap="round" stroke-linejoin="round"/>
<path d="M728.415 80.6274H597.987V228.335H728.415V80.6274Z" fill="white" stroke="#263238" stroke-miterlimit="10" stroke-linecap="round" stroke-linejoin="round"/>
<path d="M728.413 80.6313H597.99V228.339H728.413V80.6313Z" fill="white" stroke="#263238" stroke-miterlimit="10" stroke-linecap="round" stroke-linejoin="round"/>
<path d="M728.414 80.6309V137.766C721.009 144.559 711.887 150.922 701.08 154.973C667.247 167.651 623.323 153.636 648.519 108.945C654.902 97.6328 659.484 88.2827 662.77 80.6309H728.414Z" fill="white" stroke="#263238" stroke-miterlimit="10" stroke-linecap="round" stroke-linejoin="round"/>
<path d="M728.414 174.034V228.339H717.459C701.785 223.351 684.648 215.573 682.362 205.003C679.244 190.538 710.728 179.207 728.414 174.034Z" fill="white" stroke="#263238" stroke-miterlimit="10" stroke-linecap="round" stroke-linejoin="round"/>
<path d="M651.931 228.339H597.99V205.481C620.69 185.073 655.06 158.038 660.758 175.655C667.289 195.809 653.691 216.334 651.931 228.339Z" fill="white" stroke="#263238" stroke-miterlimit="10" stroke-linecap="round" stroke-linejoin="round"/>
<path d="M633.403 134.292C633.403 143.232 614.096 148.99 597.99 152.25V99.585C611.347 108.027 633.403 123.595 633.403 134.292Z" fill="white" stroke="#263238" stroke-miterlimit="10" stroke-linecap="round" stroke-linejoin="round"/>
<path d="M679.84 141.631C689.98 141.631 698.199 134.613 698.199 125.955C698.199 117.297 689.98 110.278 679.84 110.278C669.701 110.278 661.482 117.297 661.482 125.955C661.482 134.613 669.701 141.631 679.84 141.631Z" fill="white" stroke="#263238" stroke-miterlimit="10" stroke-linecap="round" stroke-linejoin="round"/>
<path d="M631.964 164.979C631.964 167.927 629.064 170.316 625.485 170.316C621.907 170.316 619.006 167.927 619.006 164.979C619.006 162.032 621.907 159.643 625.485 159.643C629.064 159.643 631.964 162.033 631.964 164.979Z" fill="white" stroke="#263238" stroke-miterlimit="10" stroke-linecap="round" stroke-linejoin="round"/>
<path d="M688.839 180.989C688.839 185.042 685.293 188.327 680.92 188.327C676.547 188.327 673.001 185.042 673.001 180.989C673.001 176.937 676.547 173.652 680.92 173.652C685.293 173.652 688.839 176.937 688.839 180.989Z" fill="white" stroke="#263238" stroke-miterlimit="10" stroke-linecap="round" stroke-linejoin="round"/>
<path d="M654.591 109.905C659.932 104.955 659.932 96.9304 654.591 91.9809C649.249 87.0313 640.588 87.0313 635.246 91.9809C629.905 96.9305 629.905 104.955 635.246 109.905C640.588 114.854 649.249 114.855 654.591 109.905Z" fill="white" stroke="#263238" stroke-miterlimit="10" stroke-linecap="round" stroke-linejoin="round"/>
<path d="M685.871 309.08C691.773 309.08 696.558 297.452 696.558 283.107C696.558 268.762 691.773 257.134 685.871 257.134C679.968 257.134 675.184 268.762 675.184 283.107C675.184 297.452 679.968 309.08 685.871 309.08Z" fill="#92E3A9" stroke="#263238" stroke-miterlimit="10"/>
<path d="M652.665 267.09C656.007 276.833 662.425 283.639 667.001 282.292C671.578 280.945 672.58 271.954 669.239 262.212C665.897 252.469 659.479 245.663 654.903 247.01C650.326 248.356 649.324 257.347 652.665 267.09Z" fill="#92E3A9" stroke="#263238" stroke-miterlimit="10"/>
<path d="M642.604 301.827C651.69 310.176 662.425 313.797 666.581 309.913C670.738 306.03 666.741 296.113 657.655 287.765C648.569 279.415 637.835 275.795 633.678 279.678C629.523 283.561 633.518 293.477 642.604 301.827Z" fill="#92E3A9" stroke="#263238" stroke-miterlimit="10"/>
<path d="M685.121 307.786L684.294 386.8" stroke="#263238" stroke-miterlimit="10" stroke-linecap="round"/>
<path d="M686.117 273.45L685.121 307.785" stroke="#263238" stroke-miterlimit="10" stroke-linecap="round"/>
<path d="M686.045 267.849L686.117 270.479" stroke="#263238" stroke-miterlimit="10" stroke-linecap="round"/>
<path d="M699.404 305.05C694.047 315.474 689.691 328.137 688.849 342.522V391.393" stroke="#263238" stroke-miterlimit="10" stroke-linecap="round"/>
<path d="M665.917 308.717C672.151 316.701 678.413 327.153 683.242 340.575" stroke="#263238" stroke-miterlimit="10" stroke-linecap="round"/>
<path d="M653.622 295.625C657.395 298.942 661.651 303.252 665.917 308.717" stroke="#263238" stroke-miterlimit="10" stroke-linecap="round"/>
<path d="M640.494 286.354C640.494 286.354 644.306 288.165 649.856 292.501" stroke="#263238" stroke-miterlimit="10" stroke-linecap="round"/>
<path d="M666.367 279.878C672.287 297.141 680.235 322.652 683.943 344.796" stroke="#263238" stroke-miterlimit="10" stroke-linecap="round"/>
<path d="M662.76 269.637C663.813 272.548 665.039 276.005 666.366 279.877" stroke="#263238" stroke-miterlimit="10" stroke-linecap="round"/>
<path d="M659.064 259.731C659.064 259.731 660.1 262.373 661.764 266.906" stroke="#263238" stroke-miterlimit="10" stroke-linecap="round"/>
<path d="M710.481 318.596C703.084 321.195 692.969 328.445 689.459 337.94" stroke="#263238" stroke-miterlimit="10" stroke-linecap="round"/>
<path d="M709.744 363.818C719.741 368.144 729.492 368.382 731.524 364.35C733.555 360.319 727.098 353.544 717.101 349.219C707.104 344.895 697.353 344.657 695.321 348.687C693.29 352.719 699.747 359.494 709.744 363.818Z" fill="#92E3A9" stroke="#263238" stroke-miterlimit="10"/>
<path d="M710.06 352.088C706.651 350.169 702.227 348.151 697.238 347.009C697.238 347.009 693.897 344.943 690.359 347.128C689.007 347.964 689.457 354.228 689.457 354.228V386.801" stroke="#263238" stroke-miterlimit="10" stroke-linecap="round"/>
<path d="M637.991 325.84C627.113 324.133 618.944 319.192 619.747 314.805C620.548 310.418 630.018 308.246 640.896 309.954C651.773 311.661 659.942 316.602 659.139 320.989C658.337 325.375 648.868 327.547 637.991 325.84Z" fill="#92E3A9" stroke="#263238" stroke-miterlimit="10"/>
<path d="M658.356 318.515C659.659 318.964 660.958 319.487 662.233 320.095C671.222 324.384 676.718 333.121 676.718 342.49V385.547" stroke="#263238" stroke-miterlimit="10" stroke-linecap="round"/>
<path d="M643.783 315.97C647.89 316.115 653.157 316.724 658.357 318.515" stroke="#263238" stroke-miterlimit="10" stroke-linecap="round"/>
<path d="M636.073 316.224C636.073 316.224 636.941 316.109 638.429 316.024" stroke="#263238" stroke-miterlimit="10" stroke-linecap="round"/>
<path d="M648.912 355.333C639.353 360.439 629.66 361.452 627.262 357.596C624.865 353.741 630.67 346.478 640.229 341.373C649.788 336.269 659.481 335.255 661.878 339.11C664.276 342.965 658.471 350.229 648.912 355.333Z" fill="#92E3A9" stroke="#263238" stroke-miterlimit="10"/>
<path d="M646.591 344.307C649.856 341.994 654.335 339.354 659.574 337.665C659.574 337.665 671.432 335.852 674.137 342.952" stroke="#263238" stroke-miterlimit="10" stroke-linecap="round"/>
<path d="M640.823 349.054C640.823 349.054 641.413 348.454 642.501 347.509" stroke="#263238" stroke-miterlimit="10" stroke-linecap="round"/>
<path d="M672.333 343.369C672.333 343.369 686.305 340.864 686.305 349.633C686.305 358.403 676.39 365.502 672.333 375.525C668.277 385.547 660.615 385.965 656.559 375.942C652.502 365.92 658.362 347.545 672.333 343.369Z" fill="#92E3A9" stroke="#263238" stroke-miterlimit="10"/>
<path d="M681.798 343.787C681.798 343.787 669.629 348.381 666.024 362.997L681.798 343.787Z" fill="#92E3A9"/>
<path d="M681.798 343.787C681.798 343.787 669.629 348.381 666.024 362.997" stroke="#263238" stroke-miterlimit="10"/>
<path d="M680.896 362.997V386.799" stroke="#263238" stroke-miterlimit="10" stroke-linecap="round"/>
<path d="M658.512 433.153C655.321 423.932 653.458 413.286 653.458 402.685C653.458 396.117 654.179 389.84 655.48 384.055H712.405C713.706 389.84 714.426 396.118 714.426 402.685C714.426 413.286 712.563 423.933 709.372 433.153H658.512Z" fill="#263238"/>
<path d="M713.866 392.765C714.029 394.195 714.155 395.65 714.247 397.12H653.64C653.732 395.649 653.858 394.195 654.021 392.765H713.866Z" fill="#7A7A7A"/>
<path d="M654.285 415.023C654.095 413.58 653.93 412.129 653.804 410.668H714.082C713.957 412.129 713.791 413.58 713.602 415.023H654.285Z" fill="#7A7A7A"/>
<path d="M694.805 402.927C694.805 404.139 695.904 405.121 697.258 405.121C698.613 405.121 699.712 404.139 699.712 402.927C699.712 401.715 698.613 400.733 697.258 400.733C695.904 400.732 694.805 401.715 694.805 402.927Z" fill="#8C8C8C"/>
<path d="M682.541 402.927C682.541 404.139 683.64 405.121 684.994 405.121C686.349 405.121 687.447 404.139 687.447 402.927C687.447 401.715 686.349 400.733 684.994 400.733C683.64 400.732 682.541 401.715 682.541 402.927Z" fill="#8C8C8C"/>
<path d="M670.277 402.927C670.277 404.139 671.376 405.121 672.731 405.121C674.085 405.121 675.184 404.139 675.184 402.927C675.184 401.715 674.085 400.733 672.731 400.733C671.376 400.732 670.277 401.715 670.277 402.927Z" fill="#8C8C8C"/>
<path d="M658.013 402.927C658.013 404.139 659.111 405.121 660.466 405.121C661.821 405.121 662.92 404.139 662.92 402.927C662.92 401.715 661.822 400.733 660.466 400.733C659.112 400.732 658.013 401.715 658.013 402.927Z" fill="#8C8C8C"/>
<path d="M559.705 215.62L557.82 209.605C557.82 209.605 557.192 204.56 556.145 203.395C555.098 202.231 551.12 200.291 549.654 198.933C548.187 197.575 546.932 197.574 546.722 198.739C546.513 199.903 546.932 201.649 547.56 202.038C548.187 202.426 550.281 204.172 550.281 204.172C550.281 204.172 545.613 201.464 544.356 200.494C543.1 199.523 538.555 197.381 537.927 198.157C537.299 198.933 538.137 200.679 538.137 200.679C538.137 200.679 535.417 200.128 535.417 201.874C535.417 203.62 536.678 204.21 536.678 204.21C536.678 204.21 534.884 204.764 535.302 206.122C535.721 207.481 538.167 208.565 538.167 208.565C538.167 208.565 535.764 208.924 537.021 210.477C538.278 212.029 543.58 215.232 546.303 216.397C549.025 217.561 552.375 218.531 552.375 218.531L559.077 222.993L559.705 215.62Z" fill="white" stroke="#263238" stroke-miterlimit="10" stroke-linecap="round" stroke-linejoin="round"/>
<path d="M538.135 200.68C538.135 200.68 542.114 203.396 542.951 204.172C543.789 204.948 546.075 206.122 546.075 206.122" stroke="#263238" stroke-miterlimit="10" stroke-linecap="round" stroke-linejoin="round"/>
<path d="M536.804 204.381L543.506 208.067L544.471 208.671" stroke="#263238" stroke-miterlimit="10" stroke-linecap="round" stroke-linejoin="round"/>
<path d="M550.281 204.172L551.119 207.471" stroke="#263238" stroke-miterlimit="10" stroke-linecap="round" stroke-linejoin="round"/>
<path d="M577.713 224.739L559.705 215.62L556.563 223.575L575.2 239.292L577.713 224.739Z" fill="#92E3A9" stroke="#263238" stroke-miterlimit="10" stroke-linecap="round" stroke-linejoin="round"/>
<path d="M591.398 184.877C591.398 184.877 575.504 199.992 574.04 208.518C572.576 217.044 571.74 260.837 571.74 260.837C571.74 260.837 582.824 262.581 583.869 262.581C584.914 262.581 590.561 262.581 590.561 262.581C590.561 262.581 587.842 223.632 589.724 210.262C591.607 196.892 598.508 184.877 598.508 184.877C598.508 184.877 595.581 183.715 591.398 184.877Z" fill="#92E3A9" stroke="#263238" stroke-miterlimit="10" stroke-linecap="round" stroke-linejoin="round"/>
<path d="M579.791 258.173L580.847 284.254C580.847 284.254 574.514 302.836 579.088 323.049C583.661 343.261 584.013 359.888 584.013 359.888C584.013 359.888 586.124 374.233 586.124 381.078C586.124 387.924 583.661 415.309 583.661 415.309C583.661 415.309 581.199 418.569 578.384 421.829C575.57 425.089 568.532 427.045 567.477 429.654C566.421 432.262 571.699 431.284 575.921 431.284C580.143 431.284 587.532 429.654 589.643 428.676C591.754 427.698 596.328 428.35 597.384 427.698C598.44 427.046 599.847 423.134 599.495 420.199C599.143 417.265 602.31 391.511 604.42 381.404C606.531 371.298 603.365 351.738 603.365 351.738C603.365 351.738 609.699 298.924 610.049 295.665C610.401 292.405 614.271 277.408 613.568 271.866C612.864 266.324 612.16 257.521 612.16 256.218C612.161 254.914 579.791 258.173 579.791 258.173Z" fill="#263238" stroke="#263238" stroke-miterlimit="10" stroke-linecap="round" stroke-linejoin="round"/>
<path d="M595.624 288.166C595.624 288.166 592.106 321.745 593.513 337.393C594.921 353.041 597.383 370.646 599.142 374.884C600.901 379.122 603.012 401.291 603.012 407.485C603.012 413.678 603.364 424.111 603.364 424.111C603.364 424.111 597.031 429.979 592.457 431.935C587.883 433.891 586.124 435.521 588.587 436.499C591.05 437.477 595.623 438.455 603.364 437.477C611.105 436.499 617.789 436.499 618.845 433.891C619.9 431.283 619.549 424.437 619.549 424.437C619.549 424.437 621.308 393.14 621.308 378.144C621.308 363.148 616.382 345.87 616.382 345.87L620.604 317.833C620.604 317.833 629.049 302.837 629.4 288.819C629.752 274.8 621.309 258.5 620.604 257.522C619.9 256.544 590.346 259.478 590.346 259.478" fill="#263238"/>
<path d="M595.624 288.166C595.624 288.166 592.106 321.745 593.513 337.393C594.921 353.041 597.383 370.646 599.142 374.884C600.901 379.122 603.012 401.291 603.012 407.485C603.012 413.678 603.364 424.111 603.364 424.111C603.364 424.111 597.031 429.979 592.457 431.935C587.883 433.891 586.124 435.521 588.587 436.499C591.05 437.477 595.623 438.455 603.364 437.477C611.105 436.499 617.789 436.499 618.845 433.891C619.9 431.283 619.549 424.437 619.549 424.437C619.549 424.437 621.308 393.14 621.308 378.144C621.308 363.148 616.382 345.87 616.382 345.87L620.604 317.833C620.604 317.833 629.049 302.837 629.4 288.819C629.752 274.8 621.309 258.5 620.604 257.522C619.9 256.544 590.346 259.478 590.346 259.478" stroke="#263238" stroke-miterlimit="10" stroke-linecap="round" stroke-linejoin="round"/>
<path d="M585.773 287.188C585.773 287.188 586.829 291.099 591.754 293.381" stroke="white" stroke-miterlimit="10" stroke-linecap="round" stroke-linejoin="round"/>
<path d="M599.495 420.199C599.487 420.133 599.483 420.043 599.478 419.955C592.046 423.262 584.717 420.851 584.717 420.851C584.717 420.851 584.717 420.851 584.717 419.547C584.717 418.243 583.661 415.309 583.661 415.309C583.661 415.309 581.199 418.569 578.384 421.829C575.57 425.089 568.532 427.044 567.477 429.653C566.421 432.261 571.699 431.283 575.921 431.283C580.144 431.283 587.532 429.653 589.643 428.675C591.754 427.697 596.328 428.349 597.384 427.697C598.44 427.045 599.847 423.133 599.495 420.199Z" fill="white" stroke="#263238" stroke-miterlimit="10" stroke-linecap="round" stroke-linejoin="round"/>
<path d="M618.846 433.891C619.659 431.882 619.637 427.366 619.584 425.395C614.49 426.748 607.94 427.371 607.94 427.371C607.94 427.371 607.94 427.371 606.884 425.09C605.829 422.808 603.366 424.112 603.366 424.112C603.366 424.112 597.033 429.979 592.459 431.936C587.885 433.892 586.126 435.522 588.589 436.5C591.051 437.478 595.625 438.456 603.366 437.478C611.106 436.499 617.79 436.499 618.846 433.891Z" fill="white" stroke="#263238" stroke-miterlimit="10" stroke-linecap="round" stroke-linejoin="round"/>
<path d="M590.98 189.141C590.98 189.141 575.714 206.386 575.296 210.455C574.878 214.524 578.642 260.062 579.269 260.449C579.896 260.837 587.635 262.581 590.562 262.581C593.489 262.581 597.045 262.193 597.045 262.193C597.045 262.193 595.373 217.238 596.627 207.743C597.882 198.249 606.247 189.722 607.92 185.653C609.593 181.584 602.901 181.39 601.018 181.972C599.136 182.552 590.98 189.141 590.98 189.141Z" fill="white" stroke="#263238" stroke-miterlimit="10" stroke-linecap="round" stroke-linejoin="round"/>
<path d="M583.034 138.372C583.034 138.372 576.132 147.286 576.55 149.805C576.968 152.324 577.387 154.262 576.55 155.618C575.714 156.975 571.113 158.33 571.531 160.462C571.949 162.594 575.714 164.338 575.714 164.338C575.714 164.338 577.805 175.189 580.105 176.351C582.406 177.514 588.471 175.964 588.471 175.964L589.935 186.04C589.935 186.04 584.08 194.372 588.053 194.566C592.026 194.761 609.592 181.584 609.592 181.584L607.92 175.771C607.92 175.771 611.684 168.02 611.893 160.269C612.102 152.517 604.155 139.729 597.881 137.016C591.608 134.302 586.797 135.852 583.034 138.372Z" fill="white" stroke="#263238" stroke-miterlimit="10" stroke-linecap="round" stroke-linejoin="round"/>
<path d="M588.471 175.964L594.117 174.801L589.516 181.583L588.471 175.964Z" fill="#263238" stroke="#263238" stroke-miterlimit="10" stroke-linecap="round" stroke-linejoin="round"/>
<path d="M579.269 164.531C579.269 164.531 582.824 165.693 585.752 162.012" stroke="#263238" stroke-miterlimit="10" stroke-linecap="round" stroke-linejoin="round"/>
<path d="M583.87 154.262C583.87 155.331 583.355 156.199 582.72 156.199C582.084 156.199 581.569 155.331 581.569 154.262C581.569 153.192 582.084 152.324 582.72 152.324C583.355 152.323 583.87 153.191 583.87 154.262Z" fill="#263238"/>
<path d="M580.105 149.611C580.105 149.611 583.661 146.898 585.543 150.193" stroke="#263238" stroke-miterlimit="10" stroke-linecap="round" stroke-linejoin="round"/>
<path d="M584.706 138.565C584.706 138.565 590.144 146.316 594.117 151.161C598.09 156.005 602.273 162.594 601.018 166.082C599.764 169.57 595.371 168.213 596.627 170.538C597.882 172.863 605.201 176.351 609.802 175.964C614.403 175.576 619.004 170.538 622.559 165.693C626.114 160.848 631.343 151.936 625.069 141.084C618.795 130.233 609.803 125.195 600.811 124.808C591.819 124.42 576.761 127.327 575.297 133.14C573.833 138.953 579.688 143.216 579.688 143.216L584.706 138.565Z" fill="#263238" stroke="#263238" stroke-miterlimit="10" stroke-linecap="round" stroke-linejoin="round"/>
<path d="M599.554 187.396C599.554 187.396 582.824 209.68 581.988 215.688C581.151 221.695 585.961 263.744 585.961 263.744C585.961 263.744 596.836 265.101 607.292 263.744C617.748 262.387 627.995 257.737 627.995 257.737C627.995 257.737 622.14 235.065 622.14 231.577C622.14 228.089 623.604 204.255 619.839 196.698C616.075 189.141 609.592 181.583 609.592 181.583C609.592 181.583 608.338 181.389 607.71 181.389C607.083 181.389 603.11 183.908 599.554 187.396Z" fill="#92E3A9" stroke="#263238" stroke-miterlimit="10" stroke-linecap="round" stroke-linejoin="round"/>
<path d="M561.284 221.307L555.847 218.594C555.847 218.594 553.965 213.362 552.92 211.812C551.874 210.262 548.947 210.65 547.691 210.843C546.437 211.037 542.672 210.068 540.372 209.099C538.071 208.13 537.025 209.293 537.862 210.455C538.699 211.618 540.581 212.974 540.581 212.974C540.581 212.974 530.961 213.362 530.334 213.362C529.708 213.362 525.943 212.393 526.779 214.912C527.616 217.431 534.726 221.887 538.282 222.469C541.837 223.051 551.039 222.663 551.039 222.663L556.476 226.539L561.284 221.307Z" fill="white" stroke="#263238" stroke-miterlimit="10" stroke-linecap="round" stroke-linejoin="round"/>
<path d="M540.58 212.975L545.809 214.524L548.528 215.299" stroke="#263238" stroke-miterlimit="10" stroke-linecap="round" stroke-linejoin="round"/>
<path d="M527.145 213.694C527.145 213.694 531.599 216.347 532.552 216.789C533.506 217.231 540.662 217.673 540.662 217.673" stroke="#263238" stroke-miterlimit="10" stroke-linecap="round" stroke-linejoin="round"/>
<path d="M528.735 217.377C528.735 217.377 536.051 220.03 536.846 220.03C537.641 220.03 541.14 219.883 541.14 219.883" stroke="#263238" stroke-miterlimit="10" stroke-linecap="round" stroke-linejoin="round"/>
<path d="M601.018 199.992L586.797 233.127L561.284 221.307L553.964 229.833C553.964 229.833 584.079 251.342 586.378 252.311C588.679 253.28 592.861 253.668 593.698 253.086C594.534 252.504 617.538 216.85 617.538 216.85" fill="#92E3A9"/>
<path d="M601.018 199.992L586.797 233.127L561.284 221.307L553.964 229.833C553.964 229.833 584.079 251.342 586.378 252.311C588.679 253.28 592.861 253.668 593.698 253.086C594.534 252.504 617.538 216.85 617.538 216.85" stroke="#263238" stroke-miterlimit="10" stroke-linecap="round" stroke-linejoin="round"/>
<path d="M595.042 294.696C595.042 294.696 592.881 331.88 595.042 346.181C597.203 360.483 600.907 381.935 600.907 381.935" stroke="white" stroke-miterlimit="10" stroke-linecap="round" stroke-linejoin="round"/>
<path d="M452.062 262.158C452.062 262.158 449.525 303.833 449.047 311.622C448.569 319.413 449.533 359.518 452.398 363.557C455.265 367.597 458.755 407.125 458.755 407.125C458.755 407.125 456.212 407.991 456.123 409.433C456.035 410.876 456.098 414.915 456.098 414.915C456.098 414.915 447.612 421.263 442.835 422.994C438.058 424.725 438.246 426.745 441.013 427.321C443.78 427.898 451.476 429.341 457.152 428.187C462.828 427.032 468.592 424.436 471.119 423.859C473.646 423.283 477.036 423.859 478.699 422.128C480.362 420.397 479.453 414.914 479.453 414.914C479.453 414.914 480.476 413.472 479.549 408.279C478.622 403.085 477.536 400.488 477.625 399.046C477.713 397.603 477.45 351.15 477.45 351.15L477.54 298.928C477.54 298.928 482.191 349.997 483.278 352.593C484.364 355.19 492.473 395.583 492.972 397.603C493.47 399.622 493.58 407.99 493.58 407.99C493.58 407.99 491.205 411.164 491.152 412.029C491.099 412.895 492.266 419.243 492.266 419.243C492.266 419.243 484.608 427.321 480.436 429.342C476.264 431.361 481.069 434.246 485.099 434.535C489.129 434.824 493.783 435.112 499.512 433.092C505.241 431.073 512.845 423.859 514.508 422.129C516.171 420.398 515.086 417.801 514.55 416.358C514.016 414.915 513.153 413.762 513.535 412.607C513.917 411.453 516.005 402.797 516.254 398.758C516.501 394.718 516.732 390.967 516.732 390.967C516.732 390.967 517.232 367.597 515.654 357.787C514.076 347.977 510.503 330.088 510.503 330.088C510.503 330.088 507.59 286.233 508.025 284.212C508.46 282.193 510.21 275.305 509.568 269.209C508.928 263.113 507.972 259.688 507.972 259.688L452.062 262.158Z" fill="#263238" stroke="#263238" stroke-miterlimit="10" stroke-linecap="round" stroke-linejoin="round"/>
<path d="M476.222 181.513C476.222 181.513 451.499 188.966 451.457 190.686C451.416 192.406 445.372 229.096 445.372 229.096L415.161 248.224C415.161 248.224 419.427 250.899 420.193 253.383C420.958 255.867 420.958 255.867 420.958 255.867L452.582 246.486C452.582 246.486 450.993 261.01 451.791 262.155C452.588 263.302 457.304 264.449 457.304 264.449C457.304 264.449 485.522 265.978 494.812 265.596C504.102 265.213 508.035 264.64 508.69 263.112C509.345 261.584 509.744 262.156 509.8 259.863C509.856 257.57 526.79 188.391 526.819 187.246C526.846 186.099 526.063 184.379 524.432 183.615C522.8 182.851 500.876 176.926 500.876 176.926L476.222 181.513Z" fill="white" stroke="#263238" stroke-miterlimit="10" stroke-linecap="round" stroke-linejoin="round"/>
<path d="M472.311 189.731L474.54 199.954L463.878 249.255L467.602 263.042L478.789 248.001L478.608 199.536L487.448 188.256L483.543 181.741L472.311 189.731Z" fill="#92E3A9" stroke="#263238" stroke-miterlimit="10" stroke-linecap="round" stroke-linejoin="round"/>
<path d="M464.724 245.345L475.764 252.068L478.789 248.001L478.78 245.73L466.286 238.122L464.724 245.345Z" fill="#263238"/>
<path d="M471.03 216.183L469.346 223.971L478.728 231.8L478.694 222.577L471.03 216.183Z" fill="#263238"/>
<path d="M473.133 193.503L474.539 199.954L473.826 203.253L478.637 207.246L478.609 199.536L479.314 198.635L473.133 193.503Z" fill="#263238"/>
<path d="M456.827 207.572L457.344 203.108" stroke="#263238" stroke-miterlimit="10" stroke-linecap="round" stroke-linejoin="round"/>
<path d="M452.651 243.621L456.252 212.541" stroke="#263238" stroke-miterlimit="10" stroke-linecap="round" stroke-linejoin="round"/>
<path d="M475.285 195.13L468.595 181.323L477.382 176.163L475.285 195.13Z" fill="white" stroke="#263238" stroke-miterlimit="10" stroke-linecap="round" stroke-linejoin="round"/>
<path d="M468.595 181.323L466.054 192.598L472.311 189.731L468.595 181.323Z" fill="white" stroke="#263238" stroke-miterlimit="10" stroke-linecap="round" stroke-linejoin="round"/>
<path d="M476.023 129.5C476.023 129.5 468.973 151.551 468.467 160.739C467.961 169.928 470.982 173.866 473.514 174.653L475.761 175.441L475.285 195.13L482.892 185.154L483.541 181.741L498.314 168.352L501.641 159.689C501.641 159.689 507.281 160.739 509.096 156.014C510.91 151.288 508.708 148.663 508.708 148.663C508.708 148.663 516.252 141.313 513.634 132.388C511.016 123.462 504.15 114.537 491.117 114.537C478.084 114.537 469.124 121.887 476.023 129.5Z" fill="white" stroke="#263238" stroke-miterlimit="10" stroke-linecap="round" stroke-linejoin="round"/>
<path d="M513.635 132.388C511.017 123.462 504.151 114.537 491.118 114.537C478.085 114.537 469.124 121.887 476.024 129.5C476.024 129.5 480.474 132.913 483.603 132.388C486.733 131.863 488.767 129.762 494.086 132.388C499.405 135.013 499.922 137.112 498.139 140.526C496.357 143.939 496.603 145.513 497.42 146.826C497.511 146.97 497.603 147.14 497.697 147.322L492.588 159.164C492.588 159.164 490.964 156.014 484.228 153.389C477.492 150.764 469.463 154.702 469.463 154.702C464.19 175.922 475.761 175.441 475.761 175.441C475.761 175.441 489.418 173.078 493.467 169.666C497.516 166.253 498.139 163.891 498.512 160.215C498.733 158.033 498.72 153.165 498.672 149.571C499.035 150.513 499.295 151.29 499.295 151.29C499.295 151.29 500.485 148.927 503.338 148.139C506.19 147.352 508.708 148.664 508.708 148.664C508.708 148.664 516.251 141.313 513.635 132.388Z" fill="#263238" stroke="#263238" stroke-miterlimit="10" stroke-linecap="round" stroke-linejoin="round"/>
<path d="M481.416 140.788L478.992 147.351C478.992 147.351 470.951 151.814 472.638 152.338C474.325 152.863 480.029 151.288 480.029 151.288" stroke="#263238" stroke-miterlimit="10" stroke-linecap="round" stroke-linejoin="round"/>
<path d="M472.484 158.639C472.484 158.639 475.808 161.79 482.136 157.852" stroke="white" stroke-miterlimit="10" stroke-linecap="round" stroke-linejoin="round"/>
<path d="M486.865 146.602C486.676 147.516 486.003 148.174 485.36 148.073C484.718 147.971 484.351 147.149 484.54 146.235C484.729 145.322 485.402 144.663 486.045 144.764C486.687 144.866 487.055 145.688 486.865 146.602Z" fill="#263238"/>
<path d="M476.868 145.312C476.679 146.226 476.006 146.884 475.363 146.783C474.721 146.681 474.354 145.859 474.543 144.945C474.732 144.031 475.405 143.373 476.048 143.474C476.69 143.576 477.058 144.397 476.868 145.312Z" fill="#263238"/>
<path d="M474.581 139.837C474.581 139.837 476.698 138.675 479.733 139.837" stroke="#263238" stroke-miterlimit="10" stroke-linecap="round" stroke-linejoin="round"/>
<path d="M485.29 140.482C485.29 140.482 488.641 140.094 491.083 142.804" stroke="#263238" stroke-miterlimit="10" stroke-linecap="round" stroke-linejoin="round"/>
<path d="M482.894 185.153L485.431 192.979L503.795 175.59L498.315 168.352L483.542 181.741L482.894 185.153Z" fill="white" stroke="#263238" stroke-miterlimit="10" stroke-linecap="round" stroke-linejoin="round"/>
<path d="M430.744 262.577C430.744 262.577 426.789 260.655 428.574 260.379C430.36 260.105 433.446 261.203 433.446 261.203C433.446 261.203 429.655 258.593 431.578 258.731C433.502 258.868 436.562 261.065 436.562 261.065C436.562 261.065 435.581 258.731 437.491 259.417C439.401 260.104 440.412 261.202 440.412 261.202C440.412 261.202 438.28 263.537 436.495 263.812C434.71 264.086 435.148 264.361 433.973 263.95C432.796 263.539 430.744 262.577 430.744 262.577Z" fill="white" stroke="#263238" stroke-miterlimit="10" stroke-linecap="round" stroke-linejoin="round"/>
<path d="M457.851 250.31C457.851 250.31 447.724 250.313 446.238 251.438C444.753 252.564 442.739 255.49 442 255.941C441.26 256.391 433.238 256.616 433.443 258.191C433.647 259.768 438.501 259.992 438.501 259.992L435.017 263.369C435.017 263.369 427.546 260.893 427.028 262.244C426.51 263.594 434.941 266.52 436.885 266.52C438.828 266.52 442.742 265.395 443.488 264.72C444.233 264.044 452.228 257.317 452.228 257.317C452.576 258.06 458.387 256.805 458.636 256.02C458.854 255.332 457.851 250.31 457.851 250.31Z" fill="white" stroke="#263238" stroke-miterlimit="10" stroke-linecap="round" stroke-linejoin="round"/>
<path d="M438.5 259.992C438.5 259.992 442.951 260.38 444.736 260.105C446.522 259.831 448.654 257.496 448.654 257.496" stroke="#263238" stroke-miterlimit="10" stroke-linecap="round" stroke-linejoin="round"/>
<path d="M507.177 197.757L497.421 234.448L457.852 250.309L458.894 258.336C458.894 258.336 492.893 254.741 501.189 252.83C509.485 250.919 519.72 245.569 521.059 241.364C522.398 237.159 529.172 192.216 529.05 188.775C528.926 185.336 528.523 184.953 526.896 183.998C525.27 183.042 513.153 180.94 513.153 180.94" fill="white"/>
<path d="M507.177 197.757L497.421 234.448L457.852 250.309L458.894 258.336C458.894 258.336 492.893 254.741 501.189 252.83C509.485 250.919 519.72 245.569 521.059 241.364C522.398 237.159 529.172 192.216 529.05 188.775C528.926 185.336 528.523 184.953 526.896 183.998C525.27 183.042 513.153 180.94 513.153 180.94" stroke="#263238" stroke-miterlimit="10" stroke-linecap="round" stroke-linejoin="round"/>
<path d="M463.884 248.208L465.334 256.425" stroke="#263238" stroke-miterlimit="10" stroke-linecap="round" stroke-linejoin="round"/>
<path d="M419.136 245.933C419.136 245.933 425.713 246.888 424.937 253.385" stroke="#263238" stroke-miterlimit="10" stroke-linecap="round" stroke-linejoin="round"/>
<path d="M415.162 248.225L409.593 250.717C409.593 250.717 405.971 249.816 404.999 249.816C404.027 249.816 402.785 250.941 399.898 249.816C397.01 248.691 394.619 247.114 394.569 249.14C394.52 251.167 395.94 252.742 397.387 253.192C398.834 253.642 400.518 254.317 400.518 254.317L391.322 262.871C391.322 262.871 386.603 267.148 387.801 267.823C388.998 268.498 399.742 266.247 401.454 265.797C403.166 265.347 412.97 261.746 414.471 259.945C415.972 258.144 416.728 257.019 416.728 257.019L420.959 255.868C420.959 255.868 419.894 250.236 415.162 248.225Z" stroke="#263238" stroke-miterlimit="10" stroke-linecap="round" stroke-linejoin="round"/>
<path d="M411.13 257.47C411.13 257.47 406.288 256.794 404.322 257.695C402.357 258.596 399.586 262.647 399.586 262.647C399.586 262.647 393.226 264.448 391.736 265.799" stroke="#263238" stroke-miterlimit="10" stroke-linecap="round" stroke-linejoin="round"/>
<path d="M758.363 426.367H19.0928" stroke="#263238" stroke-miterlimit="10" stroke-linecap="round" stroke-linejoin="round"/>
<path d="M176.911 287.541C176.911 287.541 177.829 293.408 178.659 295.202C179.489 296.996 180.318 299.558 179.212 301.352C178.106 303.146 169.219 306.814 169.219 306.814L168.98 283.927L176.478 282.824L176.911 287.541Z" fill="white" stroke="#263238" stroke-miterlimit="10" stroke-linecap="round" stroke-linejoin="round"/>
<path d="M174.744 292.961C174.744 292.961 174.511 295.457 173.957 298.275C173.403 301.094 173.296 304.359 169.977 304.103" fill="white"/>
<path d="M174.744 292.961C174.744 292.961 174.511 295.457 173.957 298.275C173.403 301.094 173.296 304.359 169.977 304.103" stroke="#263238" stroke-miterlimit="10" stroke-linecap="round" stroke-linejoin="round"/>
<path d="M167.597 186.296L173.128 242.414L176.999 284.95L167.878 285.203L163.172 247.283L167.597 186.296Z" fill="white" stroke="#263238" stroke-miterlimit="10" stroke-linecap="round" stroke-linejoin="round"/>
<path d="M108.55 252.349C108.55 252.349 105.869 274.224 106.416 277.036C106.963 279.848 108.816 342.972 108.816 342.972C108.816 342.972 104.772 365.16 104.925 369.222C105.077 373.284 106.419 417.971 106.419 417.971C106.419 417.971 103.675 426.408 103.253 428.283C102.831 430.158 103.377 432.971 104.698 433.596C106.019 434.22 114.745 435.158 118.483 434.534C122.221 433.909 126.634 433.283 127.507 428.909C128.38 424.535 125.629 418.284 126.051 416.409C126.474 414.534 126.968 411.097 127.067 408.91C127.166 406.723 127.251 404.848 127.251 404.848C127.251 404.848 134.184 363.598 134.241 362.349C134.298 361.099 138.433 322.037 138.433 322.037C138.433 322.037 137.957 377.036 137.56 385.785C137.163 394.535 135.71 404.223 135.653 405.472C135.597 406.722 134.226 422.035 134.506 423.284C134.787 424.535 137.105 425.472 139.115 425.784C141.125 426.096 146.534 425.784 147.546 425.784C148.558 425.784 155.906 427.346 160.628 427.346C165.35 427.346 170.774 426.722 169.89 423.909C169.006 421.096 161.377 418.284 159.073 417.034C156.77 415.784 153.737 408.284 153.737 408.284C153.737 408.284 156.03 402.347 156.172 399.222C156.315 396.097 166.496 350.16 168.09 337.349C169.684 324.537 168.292 266.1 168.292 266.1L169.537 252.666C169.54 252.665 129.809 259.536 108.55 252.349Z" fill="#263238" stroke="#263238" stroke-miterlimit="10" stroke-linecap="round" stroke-linejoin="round"/>
<path d="M118.924 169.641C118.924 169.641 105.65 179.634 99.5663 182.71C93.4823 185.784 86.5682 189.884 86.5682 189.884C86.5682 189.884 78.5481 252.664 79.3781 254.971C80.2081 257.277 83.5261 290.332 83.5261 290.332L95.6943 289.82L98.7363 249.589L105.097 230.115L105.927 253.177C105.927 253.177 105.374 256.508 108.416 257.789C111.458 259.071 138.007 261.377 151.282 260.608C164.556 259.839 168.704 255.227 169.257 252.664C169.81 250.102 170.637 205.108 170.913 200.24C171.19 195.371 168.461 182.652 161.894 175.549C160.095 173.603 139.943 170.154 139.943 170.154C139.943 170.154 126.115 166.053 118.924 169.641Z" fill="white" stroke="#263238" stroke-miterlimit="10" stroke-linecap="round" stroke-linejoin="round"/>
<path d="M136.228 181.621L143.727 191.022L141.08 248.246C141.08 248.246 146.815 255.194 147.697 256.421C148.58 257.648 155.637 246.611 155.637 246.611L147.256 191.839L150.785 182.029L148.783 176.29L138.874 173.446L136.228 181.621Z" fill="#92E3A9" stroke="#263238" stroke-miterlimit="10" stroke-linecap="round" stroke-linejoin="round"/>
<path d="M142.642 214.491L150.047 210.076L148.773 201.752L143.073 205.149L142.642 214.491Z" fill="#263238"/>
<path d="M143.726 191.022L143.568 194.445L147.3 192.129L147.256 191.84L150.785 182.03L150.424 180.996L140.595 187.096L143.726 191.022Z" fill="#263238"/>
<path d="M155.637 246.611L154.627 240.01L141.18 246.065L141.079 248.246C141.079 248.246 143.069 250.656 144.885 252.89L154.295 248.652C155.096 247.457 155.637 246.611 155.637 246.611Z" fill="#263238"/>
<path d="M142.091 226.365L141.654 235.814L152.92 228.856L151.637 220.469L142.091 226.365Z" fill="#263238"/>
<path d="M105.097 230.115L115.329 209.103" stroke="#263238" stroke-miterlimit="10" stroke-linecap="round" stroke-linejoin="round"/>
<path d="M145.521 185.065L151.073 169.631L143.67 166.202L145.521 185.065Z" fill="white" stroke="#263238" stroke-miterlimit="10" stroke-linecap="round" stroke-linejoin="round"/>
<path d="M151.073 169.631L158.476 177.991L148.783 176.291L151.073 169.631Z" fill="white" stroke="#263238" stroke-miterlimit="10" stroke-linecap="round" stroke-linejoin="round"/>
<path d="M142.514 121.188C142.514 121.188 145.058 131.048 147.834 136.836C150.61 142.624 151.304 146.267 150.379 152.055C149.453 157.842 149.453 160.414 148.066 161.057C146.677 161.7 142.976 162.344 142.976 162.344L145.521 185.065L139.737 177.562L120.998 161.057L110.82 135.978C110.82 135.978 105.499 129.976 112.439 122.474C119.38 114.972 137.887 115.828 142.514 121.188Z" fill="white" stroke="#263238" stroke-miterlimit="10" stroke-linecap="round" stroke-linejoin="round"/>
<path d="M113.366 143.48L116.605 142.194C116.605 142.194 113.828 140.051 114.754 136.835C115.68 133.62 125.164 131.69 124.008 129.119C122.851 126.547 111.978 126.117 119.15 123.117C126.321 120.116 139.045 124.189 143.209 124.617C147.373 125.046 143.441 116.686 143.441 116.686C143.441 116.686 150.843 115.4 145.06 110.47C139.276 105.54 115.448 108.541 108.74 115.186C102.031 121.831 103.419 127.19 105.501 130.834C107.583 134.479 111.284 143.053 111.284 143.053L113.366 143.48Z" fill="#263238" stroke="#263238" stroke-miterlimit="10" stroke-linecap="round" stroke-linejoin="round"/>
<path d="M116.604 144.767C116.604 144.767 111.977 140.265 109.433 142.409C106.888 144.552 110.589 149.911 113.597 151.84C116.604 153.769 119.381 151.411 119.381 151.411" fill="white"/>
<path d="M116.604 144.767C116.604 144.767 111.977 140.265 109.433 142.409C106.888 144.552 110.589 149.911 113.597 151.84C116.604 153.769 119.381 151.411 119.381 151.411" stroke="#263238" stroke-miterlimit="10" stroke-linecap="round" stroke-linejoin="round"/>
<path d="M142.514 129.333C142.514 129.333 140.201 127.618 139.044 129.976C137.887 132.334 138.582 134.906 138.582 134.906L145.984 145.195L138.813 146.695" stroke="#263238" stroke-miterlimit="10" stroke-linecap="round" stroke-linejoin="round"/>
<path d="M141.357 150.768C141.357 150.768 136.499 152.698 131.641 149.053" stroke="#263238" stroke-miterlimit="10" stroke-linecap="round" stroke-linejoin="round"/>
<path d="M132.798 131.262C132.798 131.262 126.783 129.119 123.776 134.263" stroke="#263238" stroke-miterlimit="10" stroke-linecap="round" stroke-linejoin="round"/>
<path d="M132.219 140.265C133.05 140.265 133.724 139.305 133.724 138.121C133.724 136.938 133.05 135.978 132.219 135.978C131.389 135.978 130.715 136.938 130.715 138.121C130.715 139.305 131.389 140.265 132.219 140.265Z" fill="#263238"/>
<path d="M145.29 135.335C145.29 136.519 144.617 137.478 143.786 137.478C142.956 137.478 142.282 136.519 142.282 135.335C142.282 134.151 142.955 133.191 143.786 133.191C144.617 133.191 145.29 134.151 145.29 135.335Z" fill="#263238"/>
<path d="M142.977 162.344L132.335 161.486L144.134 175.633L142.977 162.344Z" fill="#263238" stroke="#263238" stroke-miterlimit="10"/>
<path d="M121 161.057L116.142 168.988L131.41 189.351L139.738 177.562L121 161.057Z" fill="white" stroke="#263238" stroke-miterlimit="10" stroke-linecap="round" stroke-linejoin="round"/>
<path d="M104.273 315.219H79.5054V305.48C79.5054 303.163 81.533 301.284 84.0336 301.284H99.7462C102.247 301.284 104.275 303.162 104.275 305.48L104.273 315.219Z" stroke="#263238" stroke-width="4" stroke-miterlimit="10" stroke-linecap="round" stroke-linejoin="round"/>
<path d="M122.723 358.466H60.3792C57.0538 358.466 54.3594 355.969 54.3594 352.888V318.004C54.3594 314.924 57.0549 312.426 60.3792 312.426H122.723C126.048 312.426 128.743 314.924 128.743 318.004V352.888C128.743 355.969 126.048 358.466 122.723 358.466Z" fill="#636363" stroke="#263238" stroke-miterlimit="10" stroke-linecap="round" stroke-linejoin="round"/>
<path d="M95.6943 289.82C95.6943 289.82 97.6304 292.639 99.5664 295.201C101.502 297.763 105.097 299.044 104.82 300.325C104.544 301.607 102.884 302.375 101.778 302.119C100.672 301.863 96.2473 298.532 96.2473 298.532L97.0774 305.194C97.0774 305.194 98.1834 307.5 96.2473 308.269C94.3113 309.038 91.5463 309.038 90.9933 308.269C90.4403 307.5 89.8873 306.22 89.8873 306.22C89.8873 306.22 85.1863 306.22 83.8033 305.45C82.4202 304.681 80.7612 303.401 81.0372 300.07C81.3142 296.739 83.5262 290.332 83.5262 290.332L95.6943 289.82Z" fill="white" stroke="#263238" stroke-miterlimit="10" stroke-linecap="round" stroke-linejoin="round"/>
<path d="M294.84 274.418H267.401V283.952H294.84V274.418Z" fill="white" stroke="#263238" stroke-miterlimit="10" stroke-linecap="round" stroke-linejoin="round"/>
<path d="M334.222 278.866H228.019C225.616 278.866 223.666 277.06 223.666 274.832V205.97C223.666 203.743 225.615 201.937 228.019 201.937H334.223C336.627 201.937 338.576 203.742 338.576 205.97V274.832C338.575 277.06 336.627 278.866 334.222 278.866Z" fill="#263238" stroke="#263238" stroke-miterlimit="10" stroke-linecap="round" stroke-linejoin="round"/>
<path d="M223.666 266.474V274.833C223.666 277.06 225.615 278.867 228.019 278.867H334.223C336.627 278.867 338.576 277.061 338.576 274.833V266.474H223.666Z" fill="white" stroke="#263238" stroke-miterlimit="10" stroke-linecap="round" stroke-linejoin="round"/>
<path d="M412.449 202.311L377.193 202.581C377.193 202.581 374.862 202.311 374.28 203.931C374.28 203.931 368.161 218.24 367.869 223.37C367.577 228.5 369.035 227.69 366.703 234.44C364.372 241.189 357.671 257.118 353.882 270.079C348.791 287.496 347.464 305.982 347.142 323.96C347.09 326.845 345.229 351.667 350.075 351.667C354.097 351.667 391.191 356.222 391.639 349.596C393.42 323.187 388.272 297.381 398.173 271.696C402.017 261.721 406.426 251.185 409.689 240.75C412.963 230.271 413.522 219.469 415.655 208.791C417.111 201.501 412.449 202.311 412.449 202.311Z" fill="#263238" stroke="#263238" stroke-miterlimit="10"/>
<path d="M415.902 205.545C415.555 201.775 412.449 202.311 412.449 202.311L377.193 202.581C377.193 202.581 374.862 202.311 374.28 203.931C374.28 203.931 368.161 218.24 367.869 223.37C367.756 225.353 367.905 226.448 367.995 227.436L368.743 228.5C368.743 228.5 369.908 237.95 383.895 238.489C397.881 239.029 405.748 233.09 408.662 227.42C411.575 221.751 412.741 212.572 415.072 207.171C415.306 206.629 415.595 206.086 415.902 205.545Z" fill="#BABABA" stroke="#263238" stroke-miterlimit="10" stroke-linecap="round" stroke-linejoin="round"/>
<path d="M407.729 216.091C405.365 223.978 406.783 226.169 404.419 239.752C402.054 253.335 393.542 268.672 390.231 282.694C386.921 296.715 388.34 346.228 388.812 348.419C388.993 349.254 389.035 350.597 389.019 351.94C390.606 351.39 391.568 350.63 391.638 349.596C393.419 323.187 388.271 297.381 398.171 271.695C402.016 261.72 406.426 251.184 409.687 240.749C412.962 230.271 413.519 219.468 415.653 208.79C416.549 204.311 415.134 202.894 413.91 202.464L413.875 202.507C413.875 202.507 410.093 208.203 407.729 216.091Z" fill="#BABABA" stroke="#263238" stroke-miterlimit="10" stroke-linecap="round" stroke-linejoin="round"/>
<path d="M339.632 415.459L339.397 415.283V384.786H344.126V365.506H326.628V384.786H331.356V415.807L289.505 428.165V431.233C289.505 433.169 291.199 434.738 293.289 434.738C295.379 434.738 297.073 433.169 297.073 431.233V430.794L332.066 427.024V431.671C332.066 433.365 333.548 434.738 335.376 434.738C337.205 434.738 338.687 433.365 338.687 431.671V426.872L375.099 430.795V431.234C375.099 433.17 376.793 434.739 378.882 434.739C380.972 434.739 382.665 433.17 382.665 431.234V428.166L339.632 415.459Z" fill="#263238" stroke="#263238" stroke-miterlimit="10"/>
<path d="M390.106 369.058H285.016C282.689 369.058 280.803 367.31 280.803 365.154V350.6C280.803 348.444 282.689 346.696 285.016 346.696H390.106C392.433 346.696 394.319 348.444 394.319 350.6V365.154C394.319 367.311 392.434 369.058 390.106 369.058Z" fill="#263238" stroke="#263238" stroke-miterlimit="10"/>
<path d="M234.707 433.162H229.994L226.926 305.804H238.829L234.707 433.162Z" fill="#263238" stroke="#263238" stroke-miterlimit="10"/>
<path d="M467.794 433.162H463.08L460.013 305.804H471.916L467.794 433.162Z" fill="#263238" stroke="#263238" stroke-miterlimit="10"/>
<path d="M202.669 286.104L206.724 437.667H211.605L215.661 311.996H490.966L494.497 437.667H501.884L503.467 286.104H202.669Z" fill="white" stroke="#263238" stroke-miterlimit="10" stroke-linecap="round" stroke-linejoin="round"/>
<path d="M503.244 289.743H202.804V293.936H503.244V289.743Z" fill="#757575" stroke="#263238" stroke-miterlimit="10"/>
<path d="M505.58 283.62H196.332V290.246H505.58V283.62Z" fill="white" stroke="#263238" stroke-miterlimit="10" stroke-linecap="round" stroke-linejoin="round"/>
<path d="M233.143 46.273C233.117 46.0991 233.126 45.9164 233.174 45.7367C233.367 45.0134 234.125 44.5813 234.869 44.7758C235.27 44.8795 235.666 44.9876 236.059 45.1003C236.798 45.3118 237.229 46.0643 237.024 46.7853C236.814 47.5069 236.045 47.9203 235.306 47.7088C234.93 47.6019 234.555 47.4989 234.177 47.4044C233.613 47.2542 233.222 46.7986 233.143 46.273ZM247.155 51.8588C247.112 51.5742 247.158 51.2777 247.313 51.0112C247.686 50.3565 248.532 50.1262 249.207 50.4914C253.664 52.918 258.092 55.9695 262.362 59.5702C262.945 60.0647 263.016 60.9219 262.513 61.4851C262.011 62.0483 261.131 62.1097 260.548 61.6152C256.425 58.14 252.158 55.192 247.863 52.8604C247.467 52.6434 247.216 52.2658 247.155 51.8588ZM269.999 70.388C269.934 69.9533 270.088 69.4932 270.446 69.1832C271.021 68.6869 271.902 68.7423 272.416 69.3063C275.723 72.9313 279.069 77.0388 282.368 81.5235C282.82 82.1363 282.678 82.9817 282.053 83.4162C281.427 83.8507 280.558 83.705 280.106 83.0923C276.865 78.6886 273.579 74.6536 270.342 71.1001C270.149 70.8881 270.037 70.641 269.999 70.388ZM287.631 93.8243C287.553 93.3105 287.784 92.7798 288.261 92.4861C288.908 92.089 289.772 92.2837 290.186 92.9177C292.203 96.0219 294.215 99.2074 296.167 102.292L298.552 106.061C298.959 106.704 298.758 107.537 298.105 107.927C297.452 108.316 296.591 108.113 296.185 107.474L293.794 103.698C291.852 100.624 289.84 97.443 287.834 94.3534C287.726 94.1864 287.658 94.0061 287.631 93.8243ZM303.498 118.452C303.423 117.95 303.642 117.425 304.106 117.129C304.747 116.721 305.613 116.895 306.038 117.524C309.27 122.275 312.275 126.348 315.225 129.968C315.707 130.557 315.608 131.412 315.003 131.872C314.403 132.336 313.523 132.232 313.045 131.639C310.048 127.952 306.996 123.821 303.717 119.003C303.598 118.838 303.527 118.646 303.498 118.452ZM322.041 141.182C321.98 140.775 322.11 140.346 322.427 140.034C322.967 139.506 323.848 139.505 324.399 140.036C325.972 141.559 327.588 143.019 329.202 144.375C331.464 146.274 333.876 148.079 336.378 149.732C337.016 150.154 337.188 150.998 336.761 151.62C336.333 152.237 335.468 152.398 334.826 151.976C332.232 150.263 329.732 148.396 327.389 146.424C325.723 145.023 324.058 143.52 322.438 141.955C322.216 141.739 322.084 141.467 322.041 141.182ZM346.403 157.706C346.366 157.457 346.397 157.199 346.51 156.958C346.825 156.275 347.649 155.979 348.353 156.292C353.019 158.368 357.958 160.065 363.036 161.336C363.784 161.522 364.238 162.264 364.054 162.99C363.869 163.716 363.112 164.152 362.364 163.966C357.124 162.656 352.027 160.904 347.211 158.759C346.763 158.557 346.47 158.152 346.403 157.706ZM375.057 165.225C375.041 165.119 375.037 165.01 375.049 164.9C375.119 164.153 375.803 163.614 376.566 163.689C381.713 164.205 386.943 164.311 392.117 163.997C392.888 163.95 393.553 164.522 393.607 165.269C393.662 166.019 393.084 166.661 392.314 166.708C386.991 167.029 381.604 166.92 376.306 166.388C375.651 166.323 375.147 165.83 375.057 165.225ZM404.615 163.714C404.51 163.014 404.977 162.351 405.695 162.202C410.796 161.148 415.784 159.674 420.519 157.81C421.229 157.53 422.045 157.868 422.339 158.562C422.634 159.257 422.294 160.048 421.584 160.329C416.7 162.248 411.554 163.772 406.296 164.855C405.546 165.008 404.801 164.539 404.633 163.808C404.629 163.776 404.62 163.745 404.615 163.714ZM432.073 153.199C431.995 152.677 432.232 152.142 432.719 151.855C437.156 149.216 441.299 146.166 445.027 142.796C445.587 142.29 446.469 142.325 446.998 142.875C447.524 143.426 447.495 144.284 446.935 144.794C443.073 148.287 438.785 151.445 434.188 154.178C433.535 154.567 432.674 154.364 432.267 153.721C432.163 153.554 432.1 153.377 432.073 153.199Z" fill="black"/>
</svg>
